<svg version="1.1" id="Layer_1" xmlns="http://www.w3.org/2000/svg" xmlns:xlink="http://www.w3.org/1999/xlink" x="0px" y="0px"
	 width="100%" viewBox="0 0 196 160" enable-background="new 0 0 196 160" xml:space="preserve">
<path fill="none" opacity="1.000000" stroke="none" 
	d="
M146.000000,161.000000 
	C97.367180,161.000000 49.234360,161.000000 1.050769,161.000000 
	C1.050769,107.738029 1.050769,54.475998 1.050769,1.106983 
	C66.215950,1.106983 131.432129,1.106983 196.824158,1.106983 
	C196.824158,54.332848 196.824158,107.666389 196.824158,161.000000 
	C180.142990,161.000000 163.321487,161.000000 146.000000,161.000000 
M113.497604,87.409836 
	C101.674232,87.329704 89.850853,87.249580 77.453659,86.833481 
	C78.253036,84.882378 78.860168,82.823738 79.881981,80.997055 
	C88.645668,65.330215 97.513741,49.721668 106.244446,34.036606 
	C106.936440,32.793415 107.504395,30.776062 106.970222,29.687708 
	C105.368408,26.424063 103.191368,23.442741 100.793869,19.646729 
	C79.070831,57.320404 57.878044,94.074486 36.545624,131.070740 
	C48.308422,133.308929 49.812935,132.708847 55.294666,123.868919 
	C56.250191,122.328003 56.965546,120.640282 57.849125,119.052246 
	C61.816048,111.922577 65.803658,104.804428 69.369949,98.422707 
	C87.055229,98.422707 103.867119,98.422707 121.610832,98.422707 
	C118.794189,94.620522 116.390709,91.376068 113.497604,87.409836 
M128.978912,142.977280 
	C135.515381,143.173615 141.730759,142.283432 147.155884,138.157013 
	C155.768234,131.606339 157.429352,116.820137 152.223495,107.749260 
	C142.542419,90.880516 133.223251,73.804283 123.718849,56.833790 
	C120.883423,51.771034 117.932739,46.772823 114.689041,41.145050 
	C107.913055,52.904987 101.569550,63.914330 94.807060,75.650841 
	C99.902428,75.650841 104.562958,76.846718 107.955711,75.286224 
	C110.860107,73.950348 112.311752,69.455956 114.580284,66.100616 
	C118.166130,72.337509 121.714066,78.413612 125.170280,84.541458 
	C130.751434,94.436852 136.404785,104.295311 141.766205,114.309334 
	C144.738403,119.860764 143.480057,126.835991 139.009521,129.517380 
	C133.683289,132.712006 128.587387,132.655823 123.878159,126.510460 
	C120.380493,121.946136 117.554382,116.871338 114.323181,112.095604 
	C113.558556,110.965492 112.439049,109.385101 111.361732,109.282455 
	C107.684326,108.932098 103.952942,109.148293 98.991882,109.148293 
	C103.066536,115.581955 106.663528,120.660812 109.628029,126.085320 
	C113.897514,133.897705 119.370735,140.142746 128.978912,142.977280 
z"/>
<path fill="#7c3aed" opacity="1.000000" stroke="none" 
	d="
M128.552368,142.942245 
	C119.370735,140.142746 113.897514,133.897705 109.628029,126.085320 
	C106.663528,120.660812 103.066536,115.581955 98.991882,109.148293 
	C103.952942,109.148293 107.684326,108.932098 111.361732,109.282455 
	C112.439049,109.385101 113.558556,110.965492 114.323181,112.095604 
	C117.554382,116.871338 120.380493,121.946136 123.878159,126.510460 
	C128.587387,132.655823 133.683289,132.712006 139.009521,129.517380 
	C143.480057,126.835991 144.738403,119.860764 141.766205,114.309334 
	C136.404785,104.295311 130.751434,94.436852 125.170280,84.541458 
	C121.714066,78.413612 118.166130,72.337509 114.580284,66.100616 
	C112.311752,69.455956 110.860107,73.950348 107.955711,75.286224 
	C104.562958,76.846718 99.902428,75.650841 94.807060,75.650841 
	C101.569550,63.914330 107.913055,52.904987 114.689041,41.145050 
	C117.932739,46.772823 120.883423,51.771034 123.718849,56.833790 
	C133.223251,73.804283 142.542419,90.880516 152.223495,107.749260 
	C157.429352,116.820137 155.768234,131.606339 147.155884,138.157013 
	C141.730759,142.283432 135.515381,143.173615 128.552368,142.942245 
z"/>
<path fill="#7c3aed" opacity="1.000000" stroke="none" 
	d="
M113.987236,88.131607 
	C116.390709,91.376068 118.794189,94.620522 121.610832,98.422707 
	C103.867119,98.422707 87.055229,98.422707 69.369949,98.422707 
	C65.803658,104.804428 61.816048,111.922577 57.849125,119.052246 
	C56.965546,120.640282 56.250191,122.328003 55.294666,123.868919 
	C49.812935,132.708847 48.308422,133.308929 36.545624,131.070740 
	C57.878044,94.074486 79.070831,57.320404 100.793869,19.646729 
	C103.191368,23.442741 105.368408,26.424063 106.970222,29.687708 
	C107.504395,30.776062 106.936440,32.793415 106.244446,34.036606 
	C97.513741,49.721668 88.645668,65.330215 79.881981,80.997055 
	C78.860168,82.823738 78.253036,84.882378 78.120865,87.145401 
	C90.521126,87.682091 102.254181,87.906845 113.987236,88.131607 
z"/>
<path fill="#7c3aed" opacity="1.000000" stroke="none" 
	d="
M113.742416,87.770721 
	C102.254181,87.906845 90.521126,87.682091 78.407776,87.313393 
	C89.850853,87.249580 101.674232,87.329704 113.742416,87.770721 
z"/>
</svg>